<svg width="36" height="24" viewBox="0 0 36 24" fill="none" xmlns="http://www.w3.org/2000/svg">
<path d="M34.3534 3.75519C33.9609 2.27706 32.8042 1.11294 31.3357 0.717875C28.6738 0 18 0 18 0C18 0 7.32623 0 4.66429 0.717875C3.19573 1.113 2.0391 2.27706 1.64654 3.75519C0.933289 6.43437 0.933289 12.0243 0.933289 12.0243C0.933289 12.0243 0.933289 17.6141 1.64654 20.2933C2.0391 21.7714 3.19573 22.8871 4.66429 23.2821C7.32623 24 18 24 18 24C18 24 28.6737 24 31.3357 23.2821C32.8042 22.8871 33.9609 21.7714 34.3534 20.2933C35.0667 17.6141 35.0667 12.0243 35.0667 12.0243C35.0667 12.0243 35.0667 6.43437 34.3534 3.75519ZM14.509 17.0994V6.94906L23.4302 12.0244L14.509 17.0994Z" fill="white"/>
</svg>
