<svg width="96" height="96" viewBox="0 0 96 96" fill="none" xmlns="http://www.w3.org/2000/svg">
<rect width="96" height="96" rx="48" fill="#333333"/>
<g clip-path="url(#clip0_1_197)">
<path d="M79.1296 71.3321L66.6662 58.8708C66.1037 58.3084 65.3411 57.9959 64.541 57.9959H62.5034C65.9537 53.5838 68.0038 48.0344 68.0038 41.9975C68.0038 27.6364 56.3655 16 42.0019 16C27.6384 16 16 27.6364 16 41.9975C16 56.3586 27.6384 67.9949 42.0019 67.9949C48.0398 67.9949 53.5903 65.9451 58.0031 62.4955V64.5328C58.0031 65.3327 58.3156 66.0951 58.8781 66.6576L71.3416 79.1188C72.5166 80.2937 74.4168 80.2937 75.5794 79.1188L79.1171 75.5817C80.2922 74.4068 80.2922 72.507 79.1296 71.3321ZM42.0019 57.9959C33.1638 57.9959 26.0007 50.8466 26.0007 41.9975C26.0007 33.1608 33.1513 25.999 42.0019 25.999C50.84 25.999 58.0031 33.1483 58.0031 41.9975C58.0031 50.8341 50.8526 57.9959 42.0019 57.9959Z" fill="#5373FD"/>
</g>
<defs>
<clipPath id="clip0_1_197">
<rect width="64" height="64" fill="white" transform="translate(16 16)"/>
</clipPath>
</defs>
</svg>
