<svg width="96" height="96" viewBox="0 0 96 96" fill="none" xmlns="http://www.w3.org/2000/svg">
<rect width="96" height="96" rx="48" fill="#333333"/>
<path d="M48 17C30.8791 17 17 30.8791 17 48C17 65.1209 30.8791 79 48 79C65.1209 79 79 65.1209 79 48C79 30.8791 65.1209 17 48 17ZM48 23C61.8165 23 73 34.1814 73 48C73 61.8165 61.8186 73 48 73C34.1835 73 23 61.8186 23 48C23 34.1835 34.1814 23 48 23ZM65.5255 39.2834L62.7085 36.4436C62.1251 35.8555 61.1754 35.8516 60.5872 36.4351L42.9182 53.9621L35.4443 46.4275C34.8609 45.8394 33.9111 45.8355 33.323 46.4189L30.4831 49.2359C29.895 49.8192 29.8911 50.769 30.4746 51.3573L41.8223 62.7967C42.4056 63.3849 43.3554 63.3887 43.9435 62.8052L65.5171 41.4048C66.1051 40.8213 66.1089 39.8715 65.5255 39.2834Z" fill="#FF6363"/>
</svg>
