<svg viewBox="0 0 50 50" fill="none" xmlns="http://www.w3.org/2000/svg">
<path d="M25.0029 18.8467C21.5969 18.8467 18.8496 21.594 18.8496 25C18.8496 28.406 21.5969 31.1533 25.0029 31.1533C28.4089 31.1533 31.1562 28.406 31.1562 25C31.1562 21.594 28.4089 18.8467 25.0029 18.8467ZM25.0029 29.0004C22.8019 29.0004 21.0025 27.2064 21.0025 25C21.0025 22.7936 22.7965 20.9996 25.0029 20.9996C27.2093 20.9996 29.0034 22.7936 29.0034 25C29.0034 27.2064 27.204 29.0004 25.0029 29.0004ZM32.8431 18.595C32.8431 19.3929 32.2005 20.0302 31.4079 20.0302C30.61 20.0302 29.9727 19.3876 29.9727 18.595C29.9727 17.8024 30.6153 17.1598 31.4079 17.1598C32.2005 17.1598 32.8431 17.8024 32.8431 18.595ZM36.9186 20.0517C36.8275 18.1291 36.3884 16.4261 34.9799 15.023C33.5768 13.6199 31.8738 13.1807 29.9513 13.0843C27.9698 12.9719 22.0307 12.9719 20.0492 13.0843C18.132 13.1754 16.429 13.6145 15.0205 15.0176C13.6121 16.4207 13.1783 18.1237 13.0819 20.0463C12.9694 22.0278 12.9694 27.9669 13.0819 29.9483C13.1729 31.8709 13.6121 33.5739 15.0205 34.977C16.429 36.3801 18.1266 36.8193 20.0492 36.9157C22.0307 37.0281 27.9698 37.0281 29.9513 36.9157C31.8738 36.8246 33.5768 36.3855 34.9799 34.977C36.383 33.5739 36.8222 31.8709 36.9186 29.9483C37.031 27.9669 37.031 22.0331 36.9186 20.0517ZM34.3587 32.0744C33.941 33.1241 33.1323 33.9327 32.0773 34.3558C30.4975 34.9824 26.7488 34.8378 25.0029 34.8378C23.2571 34.8378 19.503 34.977 17.9285 34.3558C16.8788 33.9381 16.0702 33.1294 15.6471 32.0744C15.0205 30.4946 15.1651 26.7458 15.1651 25C15.1651 23.2542 15.0259 19.5001 15.6471 17.9256C16.0648 16.8759 16.8735 16.0673 17.9285 15.6442C19.5083 15.0176 23.2571 15.1622 25.0029 15.1622C26.7488 15.1622 30.5029 15.023 32.0773 15.6442C33.127 16.0619 33.9356 16.8706 34.3587 17.9256C34.9853 19.5054 34.8407 23.2542 34.8407 25C34.8407 26.7458 34.9853 30.4999 34.3587 32.0744Z" fill="#565656"/>
<rect x="0.5" y="0.5" width="49" height="49" stroke="#565656"/>
</svg>
