<svg viewBox="0 0 50 50" fill="none" xmlns="http://www.w3.org/2000/svg">
<rect x="0.5" y="0.5" width="49" height="49" fill="#565656"/>
<path d="M36.7376 18.9812C36.7564 19.2437 36.7564 19.5063 36.7564 19.7687C36.7564 27.775 30.6626 37 19.5251 37C16.0938 37 12.9064 36.0062 10.2251 34.2813C10.7126 34.3375 11.1813 34.3563 11.6876 34.3563C14.5188 34.3563 17.1251 33.4 19.2063 31.7688C16.5438 31.7125 14.3126 29.9688 13.5438 27.5687C13.9189 27.625 14.2938 27.6625 14.6876 27.6625C15.2313 27.6625 15.7751 27.5874 16.2814 27.4563C13.5064 26.8937 11.425 24.4562 11.425 21.5125V21.4375C12.2313 21.8875 13.1688 22.1688 14.1625 22.2062C12.5313 21.1187 11.4626 19.2625 11.4626 17.1625C11.4626 16.0375 11.7625 15.0062 12.2875 14.1062C15.2688 17.7812 19.7501 20.1812 24.775 20.4437C24.6813 19.9937 24.625 19.525 24.625 19.0563C24.625 15.7187 27.325 13 30.6813 13C32.425 13 34 13.7312 35.1063 14.9125C36.475 14.65 37.7875 14.1437 38.95 13.45C38.5 14.8563 37.5438 16.0375 36.2875 16.7875C37.5063 16.6563 38.6876 16.3187 39.775 15.85C38.9502 17.05 37.9189 18.1187 36.7376 18.9812Z" fill="white"/>
<rect x="0.5" y="0.5" width="49" height="49" stroke="#565656"/>
</svg>
