<svg width="32" height="26" viewBox="0 0 32 26" fill="none" xmlns="http://www.w3.org/2000/svg">
<path d="M28.7106 6.48201C28.7309 6.76626 28.7309 7.05057 28.7309 7.33482C28.7309 16.0048 22.132 25.9947 10.0711 25.9947C6.35531 25.9947 2.90356 24.9185 0 23.0506C0.527937 23.1114 1.0355 23.1318 1.58375 23.1318C4.64969 23.1318 7.47206 22.0963 9.72587 20.3298C6.84262 20.2688 4.42637 18.3805 3.59387 15.7815C4 15.8424 4.40606 15.883 4.8325 15.883C5.42131 15.883 6.01019 15.8018 6.55837 15.6597C3.55331 15.0505 1.29944 12.4109 1.29944 9.22313V9.14194C2.1725 9.62926 3.18781 9.93382 4.26388 9.97438C2.49738 8.79669 1.34006 6.78657 1.34006 4.51245C1.34006 3.2942 1.66488 2.17745 2.23344 1.20282C5.46187 5.18251 10.3147 7.78145 15.7563 8.06576C15.6548 7.57845 15.5938 7.07088 15.5938 6.56326C15.5938 2.94901 18.5177 0.00488281 22.1522 0.00488281C24.0405 0.00488281 25.7461 0.796758 26.9441 2.07595C28.4263 1.7917 29.8476 1.24345 31.1065 0.492195C30.6191 2.01507 29.5836 3.29426 28.2232 4.10638C29.5431 3.96432 30.8222 3.59876 31.9999 3.0912C31.1066 4.39063 29.9898 5.54795 28.7106 6.48201Z" fill="white"/>
</svg>
