<svg width="33" height="33" viewBox="0 0 33 33" fill="none" xmlns="http://www.w3.org/2000/svg">
<path d="M24.1011 16.5C24.1011 16.0945 24.3801 15.7398 24.7776 15.6478C27.7445 14.9559 29.8158 12.3427 29.8158 9.28711C29.8158 5.68162 26.89 2.75 23.2975 2.75C20.2319 2.75 17.5476 4.93303 16.9194 7.93851L24.1011 16.5ZM24.1011 16.5C24.1011 16.9052 24.3798 17.2598 24.7769 17.3521L24.1011 16.5ZM16.9194 25.0615C17.5476 28.067 20.2319 30.25 23.2975 30.25C26.89 30.25 29.8158 27.3184 29.8158 23.7129C29.8158 20.6573 27.7445 18.0441 24.7776 17.3522L16.9194 25.0615ZM16.9194 25.0615C16.8351 24.6567 16.4785 24.3654 16.0639 24.3654C15.6494 24.3654 15.2928 24.6567 15.2085 25.0615C14.5801 28.067 11.8957 30.25 8.83015 30.25C5.23764 30.25 2.31186 27.3184 2.31186 23.7129C2.31186 20.6573 4.38316 18.0441 7.35008 17.3522C7.74759 17.2602 8.0266 16.9055 8.0266 16.5C8.0266 16.0948 7.74793 15.7402 7.35082 15.6479L16.9194 25.0615ZM15.2085 7.93851C14.5801 4.93301 11.8957 2.75 8.83015 2.75C5.23764 2.75 2.31186 5.68162 2.31186 9.28711C2.31186 12.3427 4.38316 14.9559 7.35008 15.6478L15.2085 7.93851ZM15.2085 7.93851C15.2928 8.34326 15.6494 8.63464 16.0639 8.63464C16.4783 8.63464 16.8349 8.34341 16.9193 7.93882L15.2085 7.93851ZM8.83015 32C11.8854 32 14.636 30.2954 16.0639 27.7195C17.4916 30.2954 20.2421 32 23.2975 32C27.8572 32 31.5638 28.2816 31.5638 23.7129C31.5638 20.6523 29.9198 17.9359 27.3694 16.5C29.9198 15.0641 31.5638 12.3477 31.5638 9.28711C31.5638 4.7184 27.8572 1 23.2975 1C20.2421 1 17.4916 2.70458 16.0639 5.2805C14.636 2.70458 11.8854 1 8.83015 1C4.27048 1 0.563843 4.7184 0.563843 9.28711C0.563843 12.3477 2.20788 15.0641 4.75833 16.5C2.20788 17.9359 0.563843 20.6523 0.563843 23.7129C0.563843 28.2816 4.27048 32 8.83015 32Z" fill="#3DB370" stroke="#3DB370"/>
</svg>
