<svg viewBox="0 0 50 50" fill="none" xmlns="http://www.w3.org/2000/svg">
<path d="M18.3723 37H13.3964V20.9764H18.3723V37ZM15.8817 18.7907C14.2906 18.7907 13 17.4728 13 15.8817C13 15.1174 13.3036 14.3844 13.844 13.844C14.3844 13.3036 15.1174 13 15.8817 13C16.6459 13 17.3789 13.3036 17.9193 13.844C18.4597 14.3844 18.7633 15.1174 18.7633 15.8817C18.7633 17.4728 17.4722 18.7907 15.8817 18.7907ZM36.9952 37H32.0301V29.1998C32.0301 27.3409 31.9926 24.9569 29.443 24.9569C26.856 24.9569 26.4596 26.9766 26.4596 29.0659V37H21.4891V20.9764H26.2614V23.1622H26.331C26.9953 21.9032 28.618 20.5746 31.039 20.5746C36.0748 20.5746 37.0005 23.8908 37.0005 28.198V37H36.9952Z" fill="#565656"/>
<rect x="0.5" y="0.5" width="49.0007" height="49" stroke="#565656"/>
</svg>
